<?xml version="1.0" encoding="UTF-8"?>
<svg version="1.1" xmlns="http://www.w3.org/2000/svg" width="200" height="200">
<path d="M0 0 C66 0 132 0 200 0 C200 66 200 132 200 200 C134 200 68 200 0 200 C0 134 0 68 0 0 Z " fill="#B4F1D5" transform="translate(0,0)"/>
<path d="M0 0 C5.28 0 10.56 0 16 0 C16.12375 2.0728125 16.12375 2.0728125 16.25 4.1875 C16.73661939 8.54651316 17.73181083 10.9185645 21 14 C24.26934278 16.28853994 27.0698152 16.47162218 31 16 C34.6578218 13.96006092 36.66946174 12.49580738 39 9 C39.45394552 6.72087062 39.45394552 6.72087062 39.625 4.3125 C39.74875 2.889375 39.8725 1.46625 40 0 C45.28 0 50.56 0 56 0 C56 6.93 56 13.86 56 21 C57.32 20.67 58.64 20.34 60 20 C63.83308969 19.65775985 66.12167697 19.45949352 69.4375 21.5 C71.64065368 25.02504589 71.9181981 27.95496511 71 32 C69.125 34.5625 69.125 34.5625 66 36 C62.5893795 36.01562116 59.35715216 35.55443019 56 35 C56.00523682 35.60062256 56.01047363 36.20124512 56.01586914 36.82006836 C56.03658014 39.52586838 56.04964125 42.23165177 56.0625 44.9375 C56.07087891 45.88302734 56.07925781 46.82855469 56.08789062 47.80273438 C56.09111328 48.70185547 56.09433594 49.60097656 56.09765625 50.52734375 C56.10289307 51.35999756 56.10812988 52.19265137 56.11352539 53.05053711 C56 55 56 55 55 56 C53.28134591 56.0935919 51.55884256 56.11744611 49.83764648 56.11352539 C48.72111694 56.11340454 47.6045874 56.11328369 46.45422363 56.11315918 C45.27179077 56.10804321 44.08935791 56.10292725 42.87109375 56.09765625 C41.79089966 56.09664917 40.71070557 56.09564209 39.59777832 56.09460449 C35.54434149 56.08935374 31.49091973 56.07539263 27.4375 56.0625 C18.383125 56.041875 9.32875 56.02125 0 56 C0 37.52 0 19.04 0 0 Z " fill="#E1C428" transform="translate(43,78)"/>
<path d="M0 0 C0.97484848 0.00222061 1.94969696 0.00444122 2.9540863 0.00672913 C4.07061584 0.00684998 5.18714539 0.00697083 6.33750916 0.00709534 C8.11115845 0.01476929 8.11115845 0.01476929 9.92063904 0.02259827 C11.54093018 0.02410889 11.54093018 0.02410889 13.19395447 0.02565002 C17.2473913 0.03090077 21.30081306 0.04486189 25.35423279 0.05775452 C34.40860779 0.07837952 43.46298279 0.09900452 52.79173279 0.12025452 C52.79173279 18.60025452 52.79173279 37.08025452 52.79173279 56.12025452 C47.51173279 56.12025452 42.23173279 56.12025452 36.79173279 56.12025452 C36.72985779 54.57337952 36.66798279 53.02650452 36.60423279 51.43275452 C36.21492361 47.76805744 35.85614375 46.21888379 33.79173279 43.05775452 C29.82858102 40.498219 26.49896425 39.68102341 21.79173279 40.12025452 C17.94496926 42.07860686 16.18207104 43.53474714 13.79173279 47.12025452 C13.33778727 49.39938389 13.33778727 49.39938389 13.16673279 51.80775452 C13.04298279 53.23087952 12.91923279 54.65400452 12.79173279 56.12025452 C7.51173279 56.12025452 2.23173279 56.12025452 -3.20826721 56.12025452 C-3.20826721 49.19025452 -3.20826721 42.26025452 -3.20826721 35.12025452 C-4.69326721 35.61525452 -4.69326721 35.61525452 -6.20826721 36.12025452 C-13.27368777 36.68100218 -13.27368777 36.68100218 -16.70826721 34.62025452 C-18.83028496 31.08355827 -19.12017421 28.13757456 -18.20826721 24.12025452 C-16.33326721 21.55775452 -16.33326721 21.55775452 -13.20826721 20.12025452 C-9.79764671 20.10463335 -6.56541937 20.56582433 -3.20826721 21.12025452 C-3.21350403 20.51963196 -3.21874084 19.9190094 -3.22413635 19.30018616 C-3.24484735 16.59438614 -3.25790846 13.88860275 -3.27076721 11.18275452 C-3.27914612 10.23722717 -3.28752502 9.29169983 -3.29615784 8.31752014 C-3.29938049 7.41839905 -3.30260315 6.51927795 -3.30592346 5.59291077 C-3.31116028 4.76025696 -3.31639709 3.92760315 -3.3217926 3.06971741 C-3.15804438 0.25782588 -2.81169156 0.1531149 0 0 Z " fill="#E1C427" transform="translate(106.20826721191406,18.879745483398438)"/>
<path d="M0 0 C4.23804015 0.97121753 5.6234411 2.01463624 8 5.6875 C8.11827351 9.51526102 7.59760891 12.87199698 7 16.6875 C13.93 16.6875 20.86 16.6875 28 16.6875 C28 35.1675 28 53.6475 28 72.6875 C9.85 72.6875 -8.3 72.6875 -27 72.6875 C-27 67.4075 -27 62.1275 -27 56.6875 C-25.4325 56.44 -23.865 56.1925 -22.25 55.9375 C-18.02497462 55.10086131 -15.60399764 54.31045323 -13 50.6875 C-11.27130221 47.23010443 -11.51033105 43.46774432 -12 39.6875 C-13.79393668 36.81720131 -14.98263276 35.19618362 -18 33.6875 C-20.33077343 33.37958131 -22.66241896 33.17854726 -25.00390625 32.96875 C-27 32.6875 -27 32.6875 -28 31.6875 C-28.07320163 29.1547235 -28.09227569 26.65646082 -28.0625 24.125 C-28.041875 21.670625 -28.02125 19.21625 -28 16.6875 C-17.605 16.1925 -17.605 16.1925 -7 15.6875 C-7.33 12.7175 -7.66 9.7475 -8 6.6875 C-5.73026349 2.76704602 -4.46270024 1.02270214 0 0 Z " fill="#34A570" transform="translate(130,62.3125)"/>
<path d="M0 0 C18.15 0 36.3 0 55 0 C55 4.95 55 9.9 55 15 C53.4325 15.2475 51.865 15.495 50.25 15.75 C46.02497462 16.58663869 43.60399764 17.37704677 41 21 C39.24749965 24.50500069 39.46096649 28.17542887 40 32 C41.91354579 35.68569662 41.91354579 35.68569662 45 38 C48.42485539 38.78431803 51.45406468 38.90544172 55 39 C55 44.28 55 49.56 55 55 C45.1 55.495 45.1 55.495 35 56 C35.1546875 58.59875 35.1546875 58.59875 35.3125 61.25 C35.30559716 66.61350948 35.30559716 66.61350948 32.875 69.6875 C29.52352838 71.21751965 27.63746981 71.6191438 24 71 C21.625 69.6875 21.625 69.6875 20 67 C19.66689818 63.26603606 19.82078766 59.76345914 20 56 C13.4 55.67 6.8 55.34 0 55 C0 36.85 0 18.7 0 0 Z " fill="#32A36E" transform="translate(44,19)"/>
<path d="M0 0 C3.85544798 1.99657127 5.59805092 3.39707638 8 7 C8.64795964 11.34473993 8.97893513 15.94504526 7.0546875 19.984375 C4.54531394 23.17238418 1.94967348 25.17332416 -2 26 C-6.30963994 26.0614409 -9.23315054 25.50011921 -12.875 23.125 C-16.19037347 19.80962653 -17.29146537 17.73859604 -17.3125 13.125 C-17.22093976 8.93154106 -16.79114265 6.28956098 -14 3 C-9.64129957 -0.86811077 -5.60406937 -0.8132088 0 0 Z " fill="#FBF8E7" transform="translate(136,27)"/>
<path d="M0 0 C1.9375 0.8125 1.9375 0.8125 4 2 C4.33 2.99 4.66 3.98 5 5 C5.969375 4.979375 6.93875 4.95875 7.9375 4.9375 C11 5 11 5 12 6 C12.0450286 7.66605828 12.03874921 9.33378384 12 11 C11.81188912 14.72959061 11.81188912 14.72959061 12.625 17.125 C12.74875 17.74375 12.8725 18.3625 13 19 C11 21 11 21 7.875 21.125 C6.451875 21.063125 6.451875 21.063125 5 21 C4.01 23.475 4.01 23.475 3 26 C1.35 25.67 -0.3 25.34 -2 25 C-2.33 23.68 -2.66 22.36 -3 21 C-4.98 21 -6.96 21 -9 21 C-9.85777549 17.56889804 -9.96691464 15.38420123 -9 12 C-9.33 11.67 -9.66 11.34 -10 11 C-10.04063832 9.33382885 -10.042721 7.66611905 -10 6 C-5.25 4.875 -5.25 4.875 -3 6 C-2.690625 5.195625 -2.38125 4.39125 -2.0625 3.5625 C-1 1 -1 1 0 0 Z " fill="#BEE2D1" transform="translate(133,94)"/>
<path d="M0 0 C0.8971875 0.99 0.8971875 0.99 1.8125 2 C3.87501834 4.3373846 3.87501834 4.3373846 7 4 C7 2.68 7 1.36 7 0 C7.66 0 8.32 0 9 0 C11.39662675 4.19409682 12.70668044 7.1541913 12 12 C9.86048252 15.89697826 7.76396533 18.64242605 4 21 C-0.03462028 21.79893471 -4.19603657 21.92775262 -7.9140625 20.015625 C-10.70274765 17.79017183 -12.96117928 15.42810838 -14 12 C-14.49729798 7.32539898 -13.69949646 4.82428666 -11 1 C-10.34 1.33 -9.68 1.66 -9 2 C-9 2.99 -9 3.98 -9 5 C-8.01 5.33 -7.02 5.66 -6 6 C-6.99 6.33 -7.98 6.66 -9 7 C-10.21869929 9.50447516 -10.21869929 9.50447516 -11 12 C-9.16116119 14.28728734 -9.16116119 14.28728734 -6.375 14.125 C-5.59125 14.08375 -4.8075 14.0425 -4 14 C-3.45627049 10.94152152 -3 8.11227195 -3 5 C-2.34 4.67 -1.68 4.34 -1 4 C-0.34786708 1.97536745 -0.34786708 1.97536745 0 0 Z " fill="#F9F2D2" transform="translate(69,103)"/>
<path d="M0 0 C2.31 0 4.62 0 7 0 C6.67 0.66 6.34 1.32 6 2 C5.73011406 5.91089263 5.76835668 9.83084937 5.75 13.75 C5.729375 14.83539063 5.70875 15.92078125 5.6875 17.0390625 C5.6595422 22.7564323 5.66497801 27.11079301 9 32 C10.82601084 34.25207746 10.82601084 34.25207746 13.49609375 34.23046875 C14.95208984 34.20919922 14.95208984 34.20919922 16.4375 34.1875 C17.88962891 34.17783203 17.88962891 34.17783203 19.37109375 34.16796875 C22.10945962 34.105232 22.10945962 34.105232 25 33 C27.00233049 29.27745719 27.24681574 26.07327189 27.23046875 21.89453125 C27.22756836 20.17266602 27.22756836 20.17266602 27.22460938 18.41601562 C27.21236328 17.22685547 27.20011719 16.03769531 27.1875 14.8125 C27.18685547 13.61173828 27.18621094 12.41097656 27.18554688 11.17382812 C27.44915275 5.41055338 27.44915275 5.41055338 26 0 C27.98 0 29.96 0 32 0 C31.88933827 3.854717 31.75889604 7.70852562 31.625 11.5625 C31.57859375 13.19155273 31.57859375 13.19155273 31.53125 14.85351562 C31.02963711 28.60606905 31.02963711 28.60606905 26.5625 33.875 C22.58363592 37.17454582 19.2402003 37.28729595 14.28125 37.21484375 C9.77272359 36.79023938 6.95186511 34.99023182 3.86791992 31.78198242 C1.64669135 28.47380053 1.47854533 26.62784 1.42578125 22.67578125 C1.39806641 21.48275391 1.37035156 20.28972656 1.34179688 19.06054688 C1.33212891 17.82369141 1.32246094 16.58683594 1.3125 15.3125 C1.27055058 12.85019602 1.22515803 10.38794749 1.17578125 7.92578125 C1.16458252 6.83692627 1.15338379 5.74807129 1.1418457 4.6262207 C1.1759327 2.0199289 1.1759327 2.0199289 0 0 Z " fill="#35A571" transform="translate(36,144)"/>
<path d="M0 0 C0 1.98 0 3.96 0 6 C-0.66 5.34 -1.32 4.68 -2 4 C-5.98938913 3.41430021 -9.97186456 3.25711503 -14 3 C-14 8.28 -14 13.56 -14 19 C-10.37 18.67 -6.74 18.34 -3 18 C-3.33 18.99 -3.66 19.98 -4 21 C-7.3 20.67 -10.6 20.34 -14 20 C-14 25.28 -14 30.56 -14 36 C-5.08391443 35.85557905 -5.08391443 35.85557905 2 31 C1.42415568 33.38564077 0.77772405 35.66682784 0 38 C-7.26 38 -14.52 38 -22 38 C-20.68 37.34 -19.36 36.68 -18 36 C-18.11811981 31.33673618 -18.24235866 26.6736912 -18.37231445 22.01074219 C-18.41567241 20.42387343 -18.45734687 18.83695776 -18.49731445 17.25 C-18.55499632 14.97121021 -18.61869638 12.69265678 -18.68359375 10.4140625 C-18.70866249 9.34679428 -18.70866249 9.34679428 -18.73423767 8.25796509 C-18.79721937 4.50339183 -18.79721937 4.50339183 -20 1 C-17.04170322 0.832662 -14.08336635 0.66609948 -11.125 0.5 C-9.86236328 0.42845703 -9.86236328 0.42845703 -8.57421875 0.35546875 C-7.76855469 0.31035156 -6.96289062 0.26523438 -6.1328125 0.21875 C-5.38918457 0.17685547 -4.64555664 0.13496094 -3.87939453 0.09179688 C-2.58744125 0.0286929 -1.29349349 0 0 0 Z " fill="#45AE7E" transform="translate(130,143)"/>
<path d="M0 0 C7.59 0 15.18 0 23 0 C19.13532661 7.43206422 14.89398391 14.24576355 10.05078125 21.0546875 C8.24488602 23.64829703 6.58729379 26.26884688 5 29 C7.54348425 29.13593443 10.07961496 29.23448907 12.625 29.3125 C13.33785156 29.35439453 14.05070313 29.39628906 14.78515625 29.43945312 C18.92295233 29.5343567 21.28665858 29.17778452 24.5234375 26.48046875 C25.74933594 25.25263672 25.74933594 25.25263672 27 24 C25.125 29.75 25.125 29.75 24 32 C15.75 32 7.5 32 -1 32 C1.24968261 26.37579348 1.24968261 26.37579348 3.171875 23.546875 C3.58646973 22.93142822 4.00106445 22.31598145 4.42822266 21.68188477 C4.86440918 21.04436279 5.3005957 20.40684082 5.75 19.75 C6.41781494 18.76181274 6.41781494 18.76181274 7.09912109 17.75366211 C7.98654261 16.44055509 8.87566459 15.12859544 9.76660156 13.81787109 C11.4008457 11.40920486 13.01397758 8.98674187 14.625 6.5625 C15.40875 5.386875 16.1925 4.21125 17 3 C11.39 3 5.78 3 0 3 C0 2.01 0 1.02 0 0 Z " fill="#3EAA78" transform="translate(139,149)"/>
<path d="M0 0 C2.8125 1.1875 2.8125 1.1875 5 3 C5.8125 5.6875 5.8125 5.6875 6 8 C4.1875 8.625 4.1875 8.625 2 9 C1.01 8.34 0.02 7.68 -1 7 C-2.98 7.99 -2.98 7.99 -5 9 C-4.79375 10.093125 -4.5875 11.18625 -4.375 12.3125 C-4 16 -4 16 -6 19 C-9.125 19.6875 -9.125 19.6875 -12 20 C-13.0625 18.1875 -13.0625 18.1875 -14 16 C-13 13 -13 13 -11.875 11.125 C-10.75200154 8.39771803 -11.22451534 6.79174478 -12 4 C-7.85594458 0.84262444 -5.25628625 -0.78285114 0 0 Z " fill="#E5C733" transform="translate(71,99)"/>
<path d="M0 0 C1.65 0.33 3.3 0.66 5 1 C5 1.66 5 2.32 5 3 C5.969375 2.979375 6.93875 2.95875 7.9375 2.9375 C11 3 11 3 12 4 C12.0450286 5.66605828 12.03874921 7.33378384 12 9 C11.83397264 12.73078202 11.83397264 12.73078202 12.5625 15.1875 C12.706875 15.785625 12.85125 16.38375 13 17 C12 18 12 18 8.9375 18.0625 C7.968125 18.041875 6.99875 18.02125 6 18 C6.185625 17.195625 6.37125 16.39125 6.5625 15.5625 C6.706875 14.716875 6.85125 13.87125 7 13 C6.67 12.67 6.34 12.34 6 12 C5.62875 12.515625 5.2575 13.03125 4.875 13.5625 C3 15 3 15 -0.1875 14.6875 C-1.115625 14.460625 -2.04375 14.23375 -3 14 C-3.125 11.625 -3.125 11.625 -3 9 C-2.34 8.34 -1.68 7.68 -1 7 C0.32 7 1.64 7 3 7 C3 6.34 3 5.68 3 5 C1.35 4.67 -0.3 4.34 -2 4 C-1.34 2.68 -0.68 1.36 0 0 Z " fill="#B2DCC9" transform="translate(133,96)"/>
<path d="M0 0 C-0.35653139 5.2984526 -3.23844308 7.92971076 -6.75 11.5625 C-7.2759375 12.12646484 -7.801875 12.69042969 -8.34375 13.27148438 C-10.74021678 15.80734959 -13.1031817 18.08243166 -15.8359375 20.265625 C-18.13474315 21.81640938 -18.13474315 21.81640938 -18.875 24.1875 C-19.24625 24.785625 -19.6175 25.38375 -20 26 C-23.625 26.75 -23.625 26.75 -27 27 C-26.65600604 24.11536497 -26.39574352 22.4295265 -24.3984375 20.26171875 C-23.39683594 19.48248047 -23.39683594 19.48248047 -22.375 18.6875 C-19.45440668 16.29603727 -16.96617771 13.91030767 -14.5625 11 C-5.23828125 0 -5.23828125 0 0 0 Z " fill="#87C9AA" transform="translate(80,30)"/>
<path d="M0 0 C9.9 0 19.8 0 30 0 C30 1.98 30 3.96 30 6 C29.34 5.01 28.68 4.02 28 3 C25.11404054 2.41518879 25.11404054 2.41518879 21.875 2.3125 C20.77929688 2.24675781 19.68359375 2.18101562 18.5546875 2.11328125 C17.71164063 2.07589844 16.86859375 2.03851563 16 2 C16.11829766 6.50253816 16.24254934 11.00485779 16.37231445 15.50708008 C16.41561833 17.03861018 16.45729667 18.57018715 16.49731445 20.10180664 C16.55512732 22.30369182 16.61878969 24.50534211 16.68359375 26.70703125 C16.70030624 27.39150833 16.71701874 28.07598541 16.73423767 28.78120422 C16.8273555 31.77120104 17.04687437 34.14062311 18 37 C16.02 37 14.04 37 12 37 C12.33 25.45 12.66 13.9 13 2 C6.27757049 2.21810589 6.27757049 2.21810589 0 4 C0 2.68 0 1.36 0 0 Z " fill="#39A774" transform="translate(74,143)"/>
<path d="M0 0 C0.598125 0.66 1.19625 1.32 1.8125 2 C3.87501834 4.3373846 3.87501834 4.3373846 7 4 C7 2.68 7 1.36 7 0 C7.66 0 8.32 0 9 0 C11.39662675 4.19409682 12.70668044 7.1541913 12 12 C9.86837183 15.88260845 7.78364686 18.68927281 4 21 C1.421875 21.29296875 1.421875 21.29296875 -1.25 21.1875 C-2.14203125 21.16042969 -3.0340625 21.13335937 -3.953125 21.10546875 C-4.62859375 21.07066406 -5.3040625 21.03585938 -6 21 C-6 20.67 -6 20.34 -6 20 C-2.37 19.67 1.26 19.34 5 19 C5.33 17.35 5.66 15.7 6 14 C6.99 13.67 7.98 13.34 9 13 C9 10.69 9 8.38 9 6 C7.68 6 6.36 6 5 6 C5 7.98 5 9.96 5 12 C3.8553125 11.938125 3.8553125 11.938125 2.6875 11.875 C-0.22718416 11.77919176 -0.22718416 11.77919176 -3 14 C-3 11.03 -3 8.06 -3 5 C-2.34 4.67 -1.68 4.34 -1 4 C-0.34786708 1.97536745 -0.34786708 1.97536745 0 0 Z " fill="#FCF9EA" transform="translate(69,103)"/>
<path d="M0 0 C1.98 0 3.96 0 6 0 C5.88933827 3.854717 5.75889604 7.70852562 5.625 11.5625 C5.57859375 13.19155273 5.57859375 13.19155273 5.53125 14.85351562 C5.03458112 28.47052077 5.03458112 28.47052077 0.6875 33.875 C-2.14225544 36.11248104 -3.44206065 36.82644198 -7 37 C-10.3125 36.5625 -10.3125 36.5625 -13 36 C-13 35.67 -13 35.34 -13 35 C-12.38511719 34.93941406 -11.77023438 34.87882812 -11.13671875 34.81640625 C-10.32847656 34.73261719 -9.52023438 34.64882812 -8.6875 34.5625 C-7.88699219 34.48128906 -7.08648437 34.40007812 -6.26171875 34.31640625 C-3.83912821 34.04734307 -3.83912821 34.04734307 -1 33 C1.00233049 29.27745719 1.24681574 26.07327189 1.23046875 21.89453125 C1.22756836 20.17266602 1.22756836 20.17266602 1.22460938 18.41601562 C1.21236328 17.22685547 1.20011719 16.03769531 1.1875 14.8125 C1.18685547 13.61173828 1.18621094 12.41097656 1.18554688 11.17382812 C1.44915275 5.41055338 1.44915275 5.41055338 0 0 Z " fill="#44AE7D" transform="translate(62,144)"/>
<path d="M0 0 C3.63 0 7.26 0 11 0 C11.33 1.65 11.66 3.3 12 5 C9.2163651 9.17545235 7.00391992 11.74902002 2 13 C-0.8125 13.125 -0.8125 13.125 -3 13 C-2.01 12.34 -1.02 11.68 0 11 C0.36460453 8.33346095 0.36460453 8.33346095 0.1875 5.375 C0.125625 3.60125 0.06375 1.8275 0 0 Z " fill="#F7F0C9" transform="translate(132,40)"/>
<path d="M0 0 C0.66 0.33 1.32 0.66 2 1 C2 3.31 2 5.62 2 8 C1.071875 8.12375 1.071875 8.12375 0.125 8.25 C-2.18437567 8.81258459 -2.18437567 8.81258459 -3.25 11.0625 C-3.4975 11.701875 -3.745 12.34125 -4 13 C-6.31 13 -8.62 13 -11 13 C-10.25 8.25 -10.25 8.25 -8 6 C-6.68 6 -5.36 6 -4 6 C-3.67 4.35 -3.34 2.7 -3 1 C-2.01 0.67 -1.02 0.34 0 0 Z " fill="#E4C630" transform="translate(77,108)"/>
<path d="M0 0 C0.99 0.33 1.98 0.66 3 1 C1.68 2.32 0.36 3.64 -1 5 C0.32 5.66 1.64 6.32 3 7 C3 7.66 3 8.32 3 9 C1.35 9.66 -0.3 10.32 -2 11 C-2 12.98 -2 14.96 -2 17 C-2.66 17.33 -3.32 17.66 -4 18 C-4.66 17.01 -5.32 16.02 -6 15 C-6.99 15.33 -7.98 15.66 -9 16 C-9.33 12.7 -9.66 9.4 -10 6 C-5.25 4.875 -5.25 4.875 -3 6 C-2.690625 5.195625 -2.38125 4.39125 -2.0625 3.5625 C-1 1 -1 1 0 0 Z " fill="#C2E3D4" transform="translate(133,94)"/>
<path d="M0 0 C3.63 0 7.26 0 11 0 C11 3.63 11 7.26 11 11 C9.68 10.01 8.36 9.02 7 8 C6.67 8.66 6.34 9.32 6 10 C2.08314366 6.48487252 1.07597185 5.37985925 0 0 Z " fill="#E8CE4B" transform="translate(120,40)"/>
<path d="M0 0 C2.8125 1.1875 2.8125 1.1875 5 3 C5.8125 5.6875 5.8125 5.6875 6 8 C4.1875 8.625 4.1875 8.625 2 9 C1.01 8.34 0.02 7.68 -1 7 C-1 6.01 -1 5.02 -1 4 C-1.66 4 -2.32 4 -3 4 C-3 3.34 -3 2.68 -3 2 C-7.33970917 3.78809729 -7.33970917 3.78809729 -10.375 7.1875 C-10.684375 8.0846875 -10.684375 8.0846875 -11 9 C-11.33 7.35 -11.66 5.7 -12 4 C-7.85594458 0.84262444 -5.25628625 -0.78285114 0 0 Z " fill="#F6ECBD" transform="translate(71,99)"/>
<path d="M0 0 C0 1.33333333 0 2.66666667 0 4 C0.66 4.33 1.32 4.66 2 5 C0.4375 7.9375 0.4375 7.9375 -2 11 C-5.75 11.875 -5.75 11.875 -9 12 C-8.52379711 7.62346871 -7.33100111 5.93461995 -3.9375 3.1875 C-3.20402344 2.58292969 -2.47054687 1.97835937 -1.71484375 1.35546875 C-1.14894531 0.90816406 -0.58304688 0.46085937 0 0 Z " fill="#B2DCC8" transform="translate(62,45)"/>
<path d="M0 0 C0.33 0.66 0.66 1.32 1 2 C0.01 3.98 -0.98 5.96 -2 8 C-10.25 8 -18.5 8 -27 8 C-27 7.67 -27 7.34 -27 7 C-23.96171668 6.25248585 -21.08365519 5.92583402 -17.96875 5.859375 C-17.24042969 5.84003906 -16.51210937 5.82070312 -15.76171875 5.80078125 C-14.254176 5.76693314 -12.74620169 5.7486981 -11.23828125 5.74609375 C-6.91257835 5.60062763 -5.4243964 5.35658048 -1.96875 2.453125 C-1.3190625 1.64359375 -0.669375 0.8340625 0 0 Z " fill="#55B88A" transform="translate(165,173)"/>
<path d="M0 0 C4.55555556 0.55555556 4.55555556 0.55555556 6 2 C6.04063832 3.66617115 6.042721 5.33388095 6 7 C0.25 8.125 0.25 8.125 -2 7 C-2.125 4.625 -2.125 4.625 -2 2 C-1.34 1.34 -0.68 0.68 0 0 Z " fill="#57B489" transform="translate(132,103)"/>
<path d="M0 0 C0.33 0 0.66 0 1 0 C1 1.65 1 3.3 1 5 C2.65 5 4.3 5 6 5 C6.33 4.01 6.66 3.02 7 2 C7 4.64 7 7.28 7 10 C6.67 8.68 6.34 7.36 6 6 C4.35 6 2.7 6 1 6 C1 7.65 1 9.3 1 11 C0.67 11 0.34 11 0 11 C0 9.35 0 7.7 0 6 C-1.65 6 -3.3 6 -5 6 C-4.67 9.96 -4.34 13.92 -4 18 C-5.65 18 -7.3 18 -9 18 C-9 17.34 -9 16.68 -9 16 C-8.34 16 -7.68 16 -7 16 C-6.67 12.37 -6.34 8.74 -6 5 C-4.02 5 -2.04 5 0 5 C0 3.35 0 1.7 0 0 Z " fill="#FEFEFD" transform="translate(137,34)"/>
<path d="M0 0 C1.65 0 3.3 0 5 0 C4.50769231 6.4 4.50769231 6.4 1.9375 9.4375 C1.298125 9.953125 0.65875 10.46875 0 11 C0 7.37 0 3.74 0 0 Z " fill="#E6C93B" transform="translate(132,40)"/>
<path d="M0 0 C3.12270126 2.51830747 3.94523098 3.7261549 4.75 7.75 C4.8325 8.8225 4.915 9.895 5 11 C3.35 11 1.7 11 0 11 C0 7.37 0 3.74 0 0 Z " fill="#E6CA3D" transform="translate(132,28)"/>
<path d="M0 0 C0.33 0 0.66 0 1 0 C1 3.63 1 7.26 1 11 C-0.65 11 -2.3 11 -4 11 C-3.56534471 6.47958496 -3.21201178 3.3458456 0 0 Z " fill="#E5C838" transform="translate(130,28)"/>
<path d="M0 0 C1.65 0 3.3 0 5 0 C4.56802365 4.7517398 3.67230705 6.92000054 0 10 C-0.66 9.67 -1.32 9.34 -2 9 C-1.34 6.03 -0.68 3.06 0 0 Z " fill="#E6C93C" transform="translate(138,40)"/>
<path d="M0 0 C3.54581059 1.8662161 5.6710856 3.1340672 7 7 C7 7.99 7 8.98 7 10 C5.35 10 3.7 10 2 10 C1.34 6.7 0.68 3.4 0 0 Z " fill="#E6CA3E" transform="translate(136,29)"/>
<path d="M0 0 C0.8125 1.625 0.8125 1.625 1 4 C-2.98461538 9.49230769 -2.98461538 9.49230769 -6 11 C-7.70702735 11.06996014 -9.41668003 11.08440154 -11.125 11.0625 C-12.03507812 11.05347656 -12.94515625 11.04445313 -13.8828125 11.03515625 C-14.58148438 11.02355469 -15.28015625 11.01195313 -16 11 C-16 10.67 -16 10.34 -16 10 C-10.555 9.505 -10.555 9.505 -5 9 C-4.67 7.35 -4.34 5.7 -4 4 C-3.01 3.67 -2.02 3.34 -1 3 C-0.67 2.01 -0.34 1.02 0 0 Z " fill="#FDFAF0" transform="translate(79,113)"/>
<path d="M0 0 C1.27351308 2.54702616 0.80191925 3.4282945 0.0625 6.125 C-0.13214844 6.84945312 -0.32679687 7.57390625 -0.52734375 8.3203125 C-0.76130859 9.15175781 -0.76130859 9.15175781 -1 10 C-2.65 10 -4.3 10 -6 10 C-4.79157144 5.56909529 -3.48331435 3.01887244 0 0 Z " fill="#E5C836" transform="translate(126,29)"/>
<path d="M0 0 C1.32 0 2.64 0 4 0 C4 3.3 4 6.6 4 10 C2 8.375 2 8.375 0 6 C-0.25 2.75 -0.25 2.75 0 0 Z " fill="#E3C428" transform="translate(127,41)"/>
<path d="M0 0 C-0.309375 0.763125 -0.61875 1.52625 -0.9375 2.3125 C-1.67893593 4.18789677 -2.36228217 6.08684652 -3 8 C-3.66 8 -4.32 8 -5 8 C-4.67 6.35 -4.34 4.7 -4 3 C-4.99 3.33 -5.98 3.66 -7 4 C-8.22520264 7.00847418 -8.22520264 7.00847418 -9 10 C-9.66 9.34 -10.32 8.68 -11 8 C-8.13593433 2.70147851 -6.25023086 0 0 0 Z " fill="#F9F3D6" transform="translate(130,27)"/>
<path d="M0 0 C2.97 0.495 2.97 0.495 6 1 C6.33 2.32 6.66 3.64 7 5 C5.1875 5.625 5.1875 5.625 3 6 C2.01 5.34 1.02 4.68 0 4 C0 2.68 0 1.36 0 0 Z " fill="#E3C429" transform="translate(70,102)"/>
<path d="M0 0 C0 2.64 0 5.28 0 8 C-1.65 7.67 -3.3 7.34 -5 7 C-4.53479806 4.30182875 -3.4249099 0 0 0 Z " fill="#41AA79" transform="translate(129,106)"/>
<path d="M0 0 C-0.35049575 3.24208567 -0.56221181 4.61527704 -3.0625 6.8125 C-3.701875 7.204375 -4.34125 7.59625 -5 8 C-4.67 6.68 -4.34 5.36 -4 4 C-4.99 4.99 -5.98 5.98 -7 7 C-7.66 6.67 -8.32 6.34 -9 6 C-7.8803014 4.99406757 -6.7540588 3.9954151 -5.625 3 C-4.68527344 2.1646875 -4.68527344 2.1646875 -3.7265625 1.3125 C-2 0 -2 0 0 0 Z " fill="#D6ECE2" transform="translate(80,30)"/>
<path d="M0 0 C0.66 0 1.32 0 2 0 C4.41685712 4.22949995 5.34833144 7.12335991 5 12 C2.07005922 9.07005922 0.80747706 6.0373853 0 2 C0 1.34 0 0.68 0 0 Z " fill="#F6EDC0" transform="translate(76,103)"/>
<path d="M0 0 C0.66 0.33 1.32 0.66 2 1 C2 1.99 2 2.98 2 4 C2.99 4.33 3.98 4.66 5 5 C2.35261084 6.4606285 1.10551666 7 -2 7 C-1.125 1.125 -1.125 1.125 0 0 Z " fill="#FDFCF7" transform="translate(58,104)"/>
<path d="M0 0 C0.99 0.66 1.98 1.32 3 2 C3 3.32 3 4.64 3 6 C1.35 6 -0.3 6 -2 6 C-1.125 1.125 -1.125 1.125 0 0 Z " fill="#39A674" transform="translate(141,108)"/>
<path d="M0 0 C-0.66 1.65 -1.32 3.3 -2 5 C-2.99 4.67 -3.98 4.34 -5 4 C-5.6875 1.9375 -5.6875 1.9375 -6 0 C-3.50907189 -1.24546405 -2.58919267 -0.7767578 0 0 Z " fill="#38A673" transform="translate(137,114)"/>
<path d="M0 0 C0.99 0 1.98 0 3 0 C3.33 1.32 3.66 2.64 4 4 C2.35 4.33 0.7 4.66 -1 5 C-1.33 4.34 -1.66 3.68 -2 3 C-1.34 2.01 -0.68 1.02 0 0 Z " fill="#39A673" transform="translate(133,96)"/>
<path d="M0 0 C1.65 0 3.3 0 5 0 C4.67 1.65 4.34 3.3 4 5 C2.68 4.67 1.36 4.34 0 4 C0 2.68 0 1.36 0 0 Z " fill="#36A571" transform="translate(139,101)"/>
<path d="M0 0 C1.65 0 3.3 0 5 0 C4.67 1.65 4.34 3.3 4 5 C2.68 4.34 1.36 3.68 0 3 C0 2.01 0 1.02 0 0 Z " fill="#37A572" transform="translate(124,101)"/>
<path d="M0 0 C0 0.66 0 1.32 0 2 C-0.99 2.66 -1.98 3.32 -3 4 C-4.19232613 6.05003955 -4.19232613 6.05003955 -5 8 C-5.33 6.35 -5.66 4.7 -6 3 C-2.25 0 -2.25 0 0 0 Z " fill="#F7F0C9" transform="translate(65,100)"/>
</svg>
